<svg width="148" height="148" viewBox="0 0 148 148" fill="none" xmlns="http://www.w3.org/2000/svg">
<path d="M148 74C148 114.869 114.869 148 74 148C33.1309 148 0 114.869 0 74C0 33.1309 33.1309 0 74 0C114.869 0 148 33.1309 148 74Z" fill="white"/>
<g filter="url(#filter0_d_446_35)">
<path d="M62.48 59.8C62.48 57.08 62.1067 55.08 61.36 53.8C60.6133 52.4667 59.12 51.8 56.88 51.8H55.28V50.2H87.2C91.7333 50.2 94 52.3333 94 56.6V62.6H92.4C92.4 56.4667 89.0667 53.4 82.4 53.4H69.68V74.6H87.76V77.8H69.68V103H62.48V59.8Z" fill="black"/>
</g>
<defs>
<filter id="filter0_d_446_35" x="51.28" y="50.2" width="46.72" height="60.8" filterUnits="userSpaceOnUse" color-interpolation-filters="sRGB">
<feFlood flood-opacity="0" result="BackgroundImageFix"/>
<feColorMatrix in="SourceAlpha" type="matrix" values="0 0 0 0 0 0 0 0 0 0 0 0 0 0 0 0 0 0 127 0" result="hardAlpha"/>
<feOffset dy="4"/>
<feGaussianBlur stdDeviation="2"/>
<feComposite in2="hardAlpha" operator="out"/>
<feColorMatrix type="matrix" values="0 0 0 0 0 0 0 0 0 0 0 0 0 0 0 0 0 0 0.25 0"/>
<feBlend mode="normal" in2="BackgroundImageFix" result="effect1_dropShadow_446_35"/>
<feBlend mode="normal" in="SourceGraphic" in2="effect1_dropShadow_446_35" result="shape"/>
</filter>
</defs>
</svg>
